<svg data-v-423bf9ae="" xmlns="http://www.w3.org/2000/svg" viewBox="0 0 142.63535390927538 60" class="icon"><!----><!----><!----><!----><g data-v-423bf9ae="" id="1628faf6-8a62-4fb7-8207-91bd1922beae" transform="matrix(1.593014841234192,0,0,1.593014841234192,-9.92926159986375,-52.14176931089821)" stroke="none" fill="black"><switch><g><path d="M95.749 42.397a.911.911 0 0 0-.053-.239c-.02-.053-.036-.102-.063-.151a.977.977 0 0 0-.156-.201c-.026-.028-.04-.066-.07-.091-.012-.01-.027-.011-.039-.02a.997.997 0 0 0-.239-.122c-.046-.018-.088-.046-.136-.057-.01-.002-.017-.009-.026-.011l-43.771-8.754a1 1 0 0 0-.393 0L7.036 41.506c-.01.002-.017.009-.026.011-.048.011-.088.039-.135.057a.986.986 0 0 0-.24.122c-.012.009-.027.01-.039.02-.03.025-.044.063-.07.091a.919.919 0 0 0-.156.201c-.027.049-.044.098-.063.151a.963.963 0 0 0-.053.239c-.003.031-.021.058-.021.089v14.534a1 1 0 0 0 .728.962L50.73 70.359a1.02 1.02 0 0 0 .544 0l43.769-12.376a1 1 0 0 0 .728-.962V42.486c-.001-.031-.019-.058-.022-.089zM50.001 68.075L8.232 56.264V43.698l41.769 8.084v16.293zm1-18.137L12.412 42.47l38.587-7.718L89.59 42.47l-38.589 7.468zm42.769 6.326L52.001 68.075V51.782l41.769-8.084v12.566z"></path></g></switch></g><!----></svg>